REM MD5 bc075670b2baa6cfc2f7a24bcf53c287
FILE "King of Parlor (Japan).bin" BINARY
  TRACK 01 MODE2/2352
    INDEX 01 00:00:00
  TRACK 02 AUDIO
    INDEX 00 54:50:01
    INDEX 01 54:52:01
  TRACK 03 AUDIO
    INDEX 00 55:49:62
    INDEX 01 55:51:62
  TRACK 04 AUDIO
    INDEX 00 56:52:62
    INDEX 01 56:54:62
  TRACK 05 AUDIO
    INDEX 00 57:51:35
    INDEX 01 57:53:35
  TRACK 06 AUDIO
    INDEX 00 58:56:57
    INDEX 01 58:58:57
REM LEADOUT 62:08:48
